<svg width="25" height="33" viewBox="0 0 25 33" fill="none" xmlns="http://www.w3.org/2000/svg">
<path d="M2.5 13L11.793 3.70697C11.9805 3.5195 12.2348 3.41418 12.5 3.41418C12.7652 3.41418 13.0195 3.5195 13.207 3.70697L22.5 13H20.5V21C20.5 21.2652 20.3946 21.5195 20.2071 21.7071C20.0196 21.8946 19.7652 22 19.5 22H14.5V15H10.5V22H5.5C5.23478 22 4.98043 21.8946 4.79289 21.7071C4.60536 21.5195 4.5 21.2652 4.5 21V13H2.5Z" fill="black"/>
<path d="M5.875 27.7578V28.3711H2.79688V27.7578H5.875ZM2.91406 25.3125V31H2.16016V25.3125H2.91406ZM6.53125 25.3125V31H5.78125V25.3125H6.53125ZM7.57031 28.9336V28.8438C7.57031 28.5391 7.61458 28.2565 7.70312 27.9961C7.79167 27.7331 7.91927 27.5052 8.08594 27.3125C8.2526 27.1172 8.45443 26.9661 8.69141 26.8594C8.92839 26.75 9.19401 26.6953 9.48828 26.6953C9.78516 26.6953 10.0521 26.75 10.2891 26.8594C10.5286 26.9661 10.7318 27.1172 10.8984 27.3125C11.0677 27.5052 11.1966 27.7331 11.2852 27.9961C11.3737 28.2565 11.418 28.5391 11.418 28.8438V28.9336C11.418 29.2383 11.3737 29.5208 11.2852 29.7812C11.1966 30.0417 11.0677 30.2695 10.8984 30.4648C10.7318 30.6576 10.5299 30.8086 10.293 30.918C10.0586 31.0247 9.79297 31.0781 9.49609 31.0781C9.19922 31.0781 8.93229 31.0247 8.69531 30.918C8.45833 30.8086 8.25521 30.6576 8.08594 30.4648C7.91927 30.2695 7.79167 30.0417 7.70312 29.7812C7.61458 29.5208 7.57031 29.2383 7.57031 28.9336ZM8.29297 28.8438V28.9336C8.29297 29.1445 8.31771 29.3438 8.36719 29.5312C8.41667 29.7161 8.49089 29.8802 8.58984 30.0234C8.69141 30.1667 8.81771 30.2799 8.96875 30.3633C9.11979 30.444 9.29557 30.4844 9.49609 30.4844C9.69401 30.4844 9.86719 30.444 10.0156 30.3633C10.1667 30.2799 10.2917 30.1667 10.3906 30.0234C10.4896 29.8802 10.5638 29.7161 10.6133 29.5312C10.6654 29.3438 10.6914 29.1445 10.6914 28.9336V28.8438C10.6914 28.6354 10.6654 28.4388 10.6133 28.2539C10.5638 28.0664 10.4883 27.901 10.3867 27.7578C10.2878 27.612 10.1628 27.4974 10.0117 27.4141C9.86328 27.3307 9.6888 27.2891 9.48828 27.2891C9.29036 27.2891 9.11589 27.3307 8.96484 27.4141C8.81641 27.4974 8.69141 27.612 8.58984 27.7578C8.49089 27.901 8.41667 28.0664 8.36719 28.2539C8.31771 28.4388 8.29297 28.6354 8.29297 28.8438ZM13.043 27.6133V31H12.3164V26.7734H13.0039L13.043 27.6133ZM12.8945 28.7266L12.5586 28.7148C12.5612 28.4258 12.599 28.1589 12.6719 27.9141C12.7448 27.6667 12.8529 27.4518 12.9961 27.2695C13.1393 27.0872 13.3177 26.9466 13.5312 26.8477C13.7448 26.7461 13.9922 26.6953 14.2734 26.6953C14.4714 26.6953 14.6536 26.724 14.8203 26.7812C14.987 26.8359 15.1315 26.9232 15.2539 27.043C15.3763 27.1628 15.4714 27.3164 15.5391 27.5039C15.6068 27.6914 15.6406 27.918 15.6406 28.1836V31H14.918V28.2188C14.918 27.9974 14.8802 27.8203 14.8047 27.6875C14.7318 27.5547 14.6276 27.4583 14.4922 27.3984C14.3568 27.3359 14.1979 27.3047 14.0156 27.3047C13.8021 27.3047 13.6237 27.3424 13.4805 27.418C13.3372 27.4935 13.2227 27.5977 13.1367 27.7305C13.0508 27.8633 12.9883 28.0156 12.9492 28.1875C12.9128 28.3568 12.8945 28.5365 12.8945 28.7266ZM15.6328 28.3281L15.1484 28.4766C15.151 28.2448 15.1888 28.0221 15.2617 27.8086C15.3372 27.5951 15.4453 27.4049 15.5859 27.2383C15.7292 27.0716 15.9049 26.9401 16.1133 26.8438C16.3216 26.7448 16.5599 26.6953 16.8281 26.6953C17.0547 26.6953 17.2552 26.7253 17.4297 26.7852C17.6068 26.8451 17.7552 26.9375 17.875 27.0625C17.9974 27.1849 18.0898 27.3424 18.1523 27.5352C18.2148 27.7279 18.2461 27.957 18.2461 28.2227V31H17.5195V28.2148C17.5195 27.9779 17.4818 27.7943 17.4062 27.6641C17.3333 27.5312 17.2292 27.4388 17.0938 27.3867C16.9609 27.332 16.8021 27.3047 16.6172 27.3047C16.4583 27.3047 16.3177 27.332 16.1953 27.3867C16.0729 27.4414 15.9701 27.5169 15.8867 27.6133C15.8034 27.707 15.7396 27.8151 15.6953 27.9375C15.6536 28.0599 15.6328 28.1901 15.6328 28.3281ZM21.0938 31.0781C20.7995 31.0781 20.5326 31.0286 20.293 30.9297C20.056 30.8281 19.8516 30.6862 19.6797 30.5039C19.5104 30.3216 19.3802 30.1055 19.2891 29.8555C19.1979 29.6055 19.1523 29.332 19.1523 29.0352V28.8711C19.1523 28.5273 19.2031 28.2214 19.3047 27.9531C19.4062 27.6823 19.5443 27.4531 19.7188 27.2656C19.8932 27.0781 20.0911 26.9362 20.3125 26.8398C20.5339 26.7435 20.763 26.6953 21 26.6953C21.3021 26.6953 21.5625 26.7474 21.7812 26.8516C22.0026 26.9557 22.1836 27.1016 22.3242 27.2891C22.4648 27.474 22.569 27.6927 22.6367 27.9453C22.7044 28.1953 22.7383 28.4688 22.7383 28.7656V29.0898H19.582V28.5H22.0156V28.4453C22.0052 28.2578 21.9661 28.0755 21.8984 27.8984C21.8333 27.7214 21.7292 27.5755 21.5859 27.4609C21.4427 27.3464 21.2474 27.2891 21 27.2891C20.8359 27.2891 20.6849 27.3242 20.5469 27.3945C20.4089 27.4622 20.2904 27.5638 20.1914 27.6992C20.0924 27.8346 20.0156 28 19.9609 28.1953C19.9062 28.3906 19.8789 28.6159 19.8789 28.8711V29.0352C19.8789 29.2357 19.9062 29.4245 19.9609 29.6016C20.0182 29.776 20.1003 29.9297 20.207 30.0625C20.3164 30.1953 20.4479 30.2995 20.6016 30.375C20.7578 30.4505 20.9349 30.4883 21.1328 30.4883C21.388 30.4883 21.6042 30.4362 21.7812 30.332C21.9583 30.2279 22.1133 30.0885 22.2461 29.9141L22.6836 30.2617C22.5924 30.3997 22.4766 30.5312 22.3359 30.6562C22.1953 30.7812 22.0221 30.8828 21.8164 30.9609C21.6133 31.0391 21.3724 31.0781 21.0938 31.0781Z" fill="black"/>
</svg>
